<svg xmlns="http://www.w3.org/2000/svg" width="320" height="320" viewBox="0 0 320 320" fill="none">
  <g opacity="0.12" stroke="#b5967f" stroke-width="2" stroke-linecap="round" stroke-linejoin="round">
    <path d="M60 70c16-14 41-14 57 0 16 14 21 40 11 59-10 19-32 34-51 30-21-4-37-24-37-48 0-16 7-31 20-41z"/>
    <path d="M100 48c-7 6-12 16-14 26-2 14 4 29 15 40 10 9 23 14 34 14"/>

    <path d="M220 90c14-12 35-12 49 0 14 12 18 36 9 53-9 17-28 30-44 26-18-3-31-22-31-44 0-15 6-28 17-35z"/>
    <path d="M252 72c-6 5-10 14-12 23-2 12 3 26 13 35 9 8 20 12 29 12"/>

    <path d="M80 230c13-12 33-12 46 0 13 11 17 33 8 48-9 15-26 26-41 23-17-3-29-20-29-40 0-14 6-26 16-31z"/>
    <path d="M110 214c-6 5-10 13-12 21-2 11 3 24 12 33 8 7 19 11 28 11"/>

    <path d="M210 220c15-13 38-13 53 0 15 13 20 37 10 55-10 18-31 31-48 28-19-3-33-23-33-45 0-15 6-29 18-38z"/>
    <path d="M245 202c-7 6-12 16-14 26-2 13 3 28 14 38 10 9 22 13 33 13"/>
  </g>
</svg>
